bw_sq_140_02
version=1
nRows=22
nColumns=46
inDegrees=yes
endheader
time	ground_force3_vx	ground_force3_vy	ground_force3_vz	ground_force3_px	ground_force3_py	ground_force3_pz	ground_torque3_x	ground_torque3_y	ground_torque3_z	ground_force5_vx	ground_force5_vy	ground_force5_vz	ground_force5_px	ground_force5_py	ground_force5_pz	ground_torque5_x	ground_torque5_y	ground_torque5_z	ground_force4_vx	ground_force4_vy	ground_force4_vz	ground_force4_px	ground_force4_py	ground_force4_pz	ground_torque4_x	ground_torque4_y	ground_torque4_z	ground_force1_vx	ground_force1_vy	ground_force1_vz	ground_force1_px	ground_force1_py	ground_force1_pz	ground_torque1_x	ground_torque1_y	ground_torque1_z	ground_force2_vx	ground_force2_vy	ground_force2_vz	ground_force2_px	ground_force2_py	ground_force2_pz	ground_torque2_x	ground_torque2_y	ground_torque2_z
0.000000	-0.000000	-0.000000	0.000000	0.200000	0.000000	-0.300000	0.000000	0.000000	-0.000000	3.949323	341.278809	111.636452	0.191496	0.000000	-1.597250	0.000021	1.263842	0.000006	-0.616441	333.236725	-109.768806	0.203022	0.000000	-0.835863	0.000006	-0.753678	0.000005	-0.000000	-0.000000	0.000000	0.200000	0.000000	0.904000	0.000000	0.000000	-0.000000	-0.000000	-0.000000	0.000000	0.400000	0.000000	0.302000	0.000000	0.000000	-0.000000	
0.001000	-0.000000	-0.000000	0.000000	0.200000	0.000000	-0.300000	0.000000	0.000000	-0.000000	4.111555	339.684357	112.118736	0.191183	0.000000	-1.598564	0.000033	1.140824	-0.000002	-1.593508	332.917877	-109.127686	0.202762	0.000000	-0.834395	0.000012	-1.226403	0.000001	-0.000000	-0.000000	0.000000	0.200000	0.000000	0.904000	0.000000	0.000000	-0.000000	-0.000000	-0.000000	0.000000	0.400000	0.000000	0.302000	0.000000	0.000000	-0.000000	
0.002000	-0.000000	-0.000000	0.000000	0.200000	0.000000	-0.300000	0.000000	0.000000	-0.000000	3.949832	341.276825	111.957863	0.191483	0.000000	-1.596460	-0.000009	1.206729	0.000005	-0.786750	330.994446	-108.804581	0.203359	0.000000	-0.835458	0.000007	-1.164513	0.000001	-0.000000	-0.000000	0.000000	0.200000	0.000000	0.904000	0.000000	0.000000	-0.000000	-0.000000	-0.000000	0.000000	0.400000	0.000000	0.302000	0.000000	0.000000	-0.000000	
0.003000	-0.000000	-0.000000	0.000000	0.200000	0.000000	-0.300000	0.000000	0.000000	-0.000000	3.949832	341.279816	111.958542	0.191711	0.000000	-1.597579	0.000009	1.253919	0.000000	-0.943160	333.236755	-109.288223	0.203194	0.000000	-0.834672	0.000018	-0.985225	0.000004	-0.000000	-0.000000	0.000000	0.200000	0.000000	0.904000	0.000000	0.000000	-0.000000	-0.000000	-0.000000	0.000000	0.400000	0.000000	0.302000	0.000000	0.000000	-0.000000	
0.004000	-0.000000	-0.000000	0.000000	0.200000	0.000000	-0.300000	0.000000	0.000000	-0.000000	3.789638	340.959930	111.315384	0.191781	0.000000	-1.597204	0.000022	1.122040	0.000003	-1.271422	334.837219	-109.449783	0.203019	0.000000	-0.834836	0.000017	-1.239677	0.000004	-0.000000	-0.000000	0.000000	0.200000	0.000000	0.904000	0.000000	0.000000	-0.000000	-0.000000	-0.000000	0.000000	0.400000	0.000000	0.302000	0.000000	0.000000	-0.000000	
0.005000	-0.000000	-0.000000	0.000000	0.200000	0.000000	-0.300000	0.000000	0.000000	-0.000000	3.789638	339.688019	111.636452	0.192177	0.000000	-1.597524	0.000025	1.040772	0.000005	-0.949337	333.875183	-109.611328	0.202962	0.000000	-0.834851	0.000031	-1.307528	0.000004	-0.000000	-0.000000	0.000000	0.200000	0.000000	0.904000	0.000000	0.000000	-0.000000	-0.000000	-0.000000	0.000000	0.400000	0.000000	0.302000	0.000000	0.000000	-0.000000	
0.006000	-0.000000	-0.000000	0.000000	0.200000	0.000000	-0.300000	0.000000	0.000000	-0.000000	4.110536	340.640686	110.994316	0.191728	0.000000	-1.598274	0.000023	1.258145	0.000001	-1.108835	333.875519	-109.289246	0.202941	0.000000	-0.835178	0.000006	-1.224101	0.000004	-0.000000	-0.000000	0.000000	0.200000	0.000000	0.904000	0.000000	0.000000	-0.000000	-0.000000	-0.000000	0.000000	0.400000	0.000000	0.302000	0.000000	0.000000	-0.000000	
0.007000	-0.000000	-0.000000	0.000000	0.200000	0.000000	-0.300000	0.000000	0.000000	-0.000000	3.949832	340.641052	110.512039	0.191901	0.000000	-1.597225	0.000023	1.202926	0.000004	0.024640	333.557617	-109.125648	0.202772	0.000000	-0.836022	0.000027	-1.037120	0.000001	-0.000000	-0.000000	0.000000	0.200000	0.000000	0.904000	0.000000	0.000000	-0.000000	-0.000000	-0.000000	0.000000	0.400000	0.000000	0.302000	0.000000	0.000000	-0.000000	
0.008000	-0.000000	-0.000000	0.000000	0.200000	0.000000	-0.300000	0.000000	0.000000	-0.000000	4.111045	341.601013	112.119415	0.192680	0.000000	-1.597294	0.000007	1.119727	0.000006	-1.432464	331.956818	-109.611328	0.202687	0.000000	-0.835580	0.000002	-1.272445	0.000001	-0.000000	-0.000000	0.000000	0.200000	0.000000	0.904000	0.000000	0.000000	-0.000000	-0.000000	-0.000000	0.000000	0.400000	0.000000	0.302000	0.000000	0.000000	-0.000000	
0.009000	-0.000000	-0.000000	0.000000	0.200000	0.000000	-0.300000	0.000000	0.000000	-0.000000	3.949832	340.006256	111.798004	0.192107	0.000000	-1.597971	-0.000004	1.226037	0.000001	-1.918682	331.956818	-109.125648	0.202616	0.000000	-0.835510	0.000028	-1.249926	0.000006	-0.000000	-0.000000	0.000000	0.200000	0.000000	0.904000	0.000000	0.000000	-0.000000	-0.000000	-0.000000	0.000000	0.400000	0.000000	0.302000	0.000000	0.000000	-0.000000	
0.010000	-0.000000	-0.000000	0.000000	0.200000	0.000000	-0.300000	0.000000	0.000000	-0.000000	3.627916	341.916260	111.154846	0.191881	0.000000	-1.596774	0.000003	1.242161	0.000003	-1.107290	332.596924	-109.127686	0.202723	0.000000	-0.834517	0.000007	-1.164840	0.000006	-0.000000	-0.000000	0.000000	0.200000	0.000000	0.904000	0.000000	0.000000	-0.000000	-0.000000	-0.000000	0.000000	0.400000	0.000000	0.302000	0.000000	0.000000	-0.000000	
0.011000	-0.000000	-0.000000	0.000000	0.200000	0.000000	-0.300000	0.000000	0.000000	-0.000000	4.110536	342.556702	110.994316	0.192362	0.000000	-1.595511	0.000017	1.199226	0.000001	-1.108835	332.920227	-109.610306	0.202606	0.000000	-0.834463	0.000026	-1.222124	0.000001	-0.000000	-0.000000	0.000000	0.200000	0.000000	0.904000	0.000000	0.000000	-0.000000	-0.000000	-0.000000	0.000000	0.400000	0.000000	0.302000	0.000000	0.000000	-0.000000	
0.012000	-0.000000	-0.000000	0.000000	0.200000	0.000000	-0.300000	0.000000	0.000000	-0.000000	3.950342	340.325470	111.476257	0.192627	0.000000	-1.597000	0.000066	1.066343	0.000005	-0.458487	333.556976	-108.645065	0.203149	0.000000	-0.834833	0.000008	-1.029815	0.000003	-0.000000	-0.000000	0.000000	0.200000	0.000000	0.904000	0.000000	0.000000	-0.000000	-0.000000	-0.000000	0.000000	0.400000	0.000000	0.302000	0.000000	0.000000	-0.000000	
0.013000	-0.000000	-0.000000	0.000000	0.200000	0.000000	-0.300000	0.000000	0.000000	-0.000000	3.627407	340.963928	111.475922	0.192174	0.000000	-1.596812	0.000025	1.237867	0.000004	-1.432464	331.641296	-109.290253	0.202116	0.000000	-0.834526	0.000017	-1.375739	0.000002	-0.000000	-0.000000	0.000000	0.200000	0.000000	0.904000	0.000000	0.000000	-0.000000	-0.000000	-0.000000	0.000000	0.400000	0.000000	0.302000	0.000000	0.000000	-0.000000	
0.014000	-0.000000	-0.000000	0.000000	0.200000	0.000000	-0.300000	0.000000	0.000000	-0.000000	3.306509	340.642029	110.833786	0.191819	0.000000	-1.597550	0.000048	1.247916	0.000002	-1.265245	334.198425	-109.612350	0.202579	0.000000	-0.835846	0.000033	-1.084762	0.000008	-0.000000	-0.000000	0.000000	0.200000	0.000000	0.904000	0.000000	0.000000	-0.000000	-0.000000	-0.000000	0.000000	0.400000	0.000000	0.302000	0.000000	0.000000	-0.000000	
0.015000	-0.000000	-0.000000	0.000000	0.200000	0.000000	-0.300000	0.000000	0.000000	-0.000000	4.433471	342.238464	111.315384	0.192312	0.000000	-1.596852	-0.000001	1.004276	0.000006	-0.786750	332.275360	-108.965118	0.202666	0.000000	-0.835741	0.000017	-1.220081	0.000001	-0.000000	-0.000000	0.000000	0.200000	0.000000	0.904000	0.000000	0.000000	-0.000000	-0.000000	-0.000000	0.000000	0.400000	0.000000	0.302000	0.000000	0.000000	-0.000000	
0.016000	-0.000000	-0.000000	0.000000	0.200000	0.000000	-0.300000	0.000000	0.000000	-0.000000	4.431942	341.277466	111.476593	0.191965	0.000000	-1.596164	0.000021	1.298486	0.000004	-0.619529	334.197418	-109.287201	0.202896	0.000000	-0.835428	-0.000000	-0.956539	0.000002	-0.000000	-0.000000	0.000000	0.200000	0.000000	0.904000	0.000000	0.000000	-0.000000	-0.000000	-0.000000	0.000000	0.400000	0.000000	0.302000	0.000000	0.000000	-0.000000	
0.017000	-0.000000	-0.000000	0.000000	0.200000	0.000000	-0.300000	0.000000	0.000000	-0.000000	3.467213	339.691681	111.315384	0.192145	0.000000	-1.598316	0.000016	1.172217	0.000006	-1.430920	332.273376	-109.288223	0.203474	0.000000	-0.834664	0.000023	-1.085010	0.000006	-0.000000	-0.000000	0.000000	0.200000	0.000000	0.904000	0.000000	0.000000	-0.000000	-0.000000	-0.000000	0.000000	0.400000	0.000000	0.302000	0.000000	0.000000	-0.000000	
0.018000	-0.000000	-0.000000	0.000000	0.200000	0.000000	-0.300000	0.000000	0.000000	-0.000000	2.823380	342.555695	111.315720	0.192000	0.000000	-1.596944	0.000039	1.291705	0.000002	-1.107290	332.595947	-108.321960	0.203178	0.000000	-0.834777	0.000003	-1.097877	0.000005	-0.000000	-0.000000	0.000000	0.200000	0.000000	0.904000	0.000000	0.000000	-0.000000	-0.000000	-0.000000	0.000000	0.400000	0.000000	0.302000	0.000000	0.000000	-0.000000	
0.019000	-0.000000	-0.000000	0.000000	0.200000	0.000000	-0.300000	0.000000	0.000000	-0.000000	3.627916	339.052582	111.154846	0.192556	0.000000	-1.597029	0.000032	1.166230	0.000002	-1.271422	332.598633	-109.126671	0.202699	0.000000	-0.834515	0.000010	-1.237144	0.000007	-0.000000	-0.000000	0.000000	0.200000	0.000000	0.904000	0.000000	0.000000	-0.000000	-0.000000	-0.000000	0.000000	0.400000	0.000000	0.302000	0.000000	0.000000	-0.000000	
0.020000	-0.000000	-0.000000	0.000000	0.200000	0.000000	-0.300000	0.000000	0.000000	-0.000000	3.467213	341.600037	111.475922	0.191960	0.000000	-1.597003	0.000032	1.179390	0.000005	-0.624162	332.280090	-108.644043	0.202677	0.000000	-0.833441	0.000010	-1.216394	0.000006	-0.000000	-0.000000	0.000000	0.200000	0.000000	0.904000	0.000000	0.000000	-0.000000	-0.000000	-0.000000	0.000000	0.400000	0.000000	0.302000	0.000000	0.000000	-0.000000	
0.021000	-0.000000	-0.000000	0.000000	0.200000	0.000000	-0.300000	0.000000	0.000000	-0.000000	4.110536	340.641724	111.636452	0.192335	0.000000	-1.596697	0.000003	1.125111	0.000002	-0.947793	330.992432	-109.448761	0.203335	0.000000	-0.835176	0.000001	-1.144072	0.000003	-0.000000	-0.000000	0.000000	0.200000	0.000000	0.904000	0.000000	0.000000	-0.000000	-0.000000	-0.000000	0.000000	0.400000	0.000000	0.302000	0.000000	0.000000	-0.000000	
